{
	"asset":{
		"generator":"Khronos glTF Blender I/O v3.5.30",
		"version":"2.0"
	},
	"scene":0,
	"scenes":[
		{
			"name":"Scene",
			"nodes":[
				0,
				1,
				2,
				3,
				4,
				5,
				6,
				7,
				8
			]
		}
	],
	"nodes":[
		{
			"mesh":0,
			"name":"Cube",
			"scale":[
				1.8700001239776611,
				0.599999725818634,
				1.880000114440918
			],
			"translation":[
				0,
				9,
				-7
			]
		},
		{
			"mesh":1,
			"name":"Cylinder",
			"scale":[
				1.5,
				1.5,
				1.5
			],
			"translation":[
				0,
				4.020000457763672,
				0
			]
		},
		{
			"mesh":2,
			"name":"Cylinder.001",
			"scale":[
				1,
				4.540012359619141,
				1
			],
			"translation":[
				0,
				4.770017623901367,
				0
			]
		},
		{
			"mesh":3,
			"name":"Cube.001",
			"scale":[
				2,
				0.30000001192092896,
				2
			]
		},
		{
			"mesh":4,
			"name":"Cube.002",
			"rotation":[
				0,
				0.7071068286895752,
				0,
				0.7071068286895752
			],
			"scale":[
				0.9699997305870056,
				0.30000001192092896,
				7
			],
			"translation":[
				0,
				9,
				-7
			]
		},
		{
			"mesh":5,
			"name":"Cube.003",
			"scale":[
				1.8700001239776611,
				0.599999725818634,
				1.880000114440918
			],
			"translation":[
				0,
				9,
				0
			]
		},
		{
			"mesh":6,
			"name":"Cube.004",
			"scale":[
				0.9699997305870056,
				0.30000001192092896,
				7
			],
			"translation":[
				0,
				9,
				-2
			]
		},
		{
			"mesh":7,
			"name":"Cylinder.002",
			"scale":[
				0.21000000834465027,
				1,
				0.23000001907348633
			],
			"translation":[
				5.900020599365234,
				7.829996109008789,
				-7
			]
		},
		{
			"mesh":8,
			"name":"Cylinder.003",
			"scale":[
				0.21000000834465027,
				1,
				0.23000001907348633
			],
			"translation":[
				5,
				7.829996109008789,
				-7
			]
		}
	],
	"materials":[
		{
			"doubleSided":true,
			"name":"Material.008",
			"pbrMetallicRoughness":{
				"baseColorFactor":[
					0.7835373878479004,
					0.7991024851799011,
					0.11953866481781006,
					1
				],
				"metallicFactor":0,
				"roughnessFactor":0.4000000059604645
			}
		},
		{
			"doubleSided":true,
			"name":"Material.006",
			"pbrMetallicRoughness":{
				"baseColorFactor":[
					0.7835373878479004,
					0.7991024851799011,
					0.11953866481781006,
					1
				],
				"metallicFactor":0,
				"roughnessFactor":0.4000000059604645
			}
		},
		{
			"doubleSided":true,
			"name":"Material.003",
			"pbrMetallicRoughness":{
				"baseColorFactor":[
					0.0012131799012422562,
					0.7991025447845459,
					0.479320228099823,
					1
				],
				"metallicFactor":0,
				"roughnessFactor":0.4000000059604645
			}
		},
		{
			"doubleSided":true,
			"name":"Material.001",
			"pbrMetallicRoughness":{
				"baseColorFactor":[
					0,
					0.1378314346075058,
					0.8000000715255737,
					1
				],
				"metallicFactor":0,
				"roughnessFactor":0.4000000059604645
			}
		},
		{
			"doubleSided":true,
			"name":"Material.005",
			"pbrMetallicRoughness":{
				"baseColorFactor":[
					0.0012131799012422562,
					0.7991025447845459,
					0.479320228099823,
					1
				],
				"metallicFactor":0,
				"roughnessFactor":0.4000000059604645
			}
		},
		{
			"doubleSided":true,
			"name":"Material.007",
			"pbrMetallicRoughness":{
				"baseColorFactor":[
					0.7835373878479004,
					0.7991024851799011,
					0.11953866481781006,
					1
				],
				"metallicFactor":0,
				"roughnessFactor":0.4000000059604645
			}
		},
		{
			"doubleSided":true,
			"name":"Material.004",
			"pbrMetallicRoughness":{
				"baseColorFactor":[
					0.0012131799012422562,
					0.7991025447845459,
					0.479320228099823,
					1
				],
				"metallicFactor":0,
				"roughnessFactor":0.4000000059604645
			}
		},
		{
			"doubleSided":true,
			"name":"Material.009",
			"pbrMetallicRoughness":{
				"baseColorFactor":[
					0.7991032004356384,
					0,
					0.0018211835995316505,
					1
				],
				"metallicFactor":0,
				"roughnessFactor":0.4000000059604645
			}
		},
		{
			"doubleSided":true,
			"name":"Material.010",
			"pbrMetallicRoughness":{
				"baseColorFactor":[
					0.7991032004356384,
					0,
					0.0018211835995316505,
					1
				],
				"metallicFactor":0,
				"roughnessFactor":0.4000000059604645
			}
		}
	],
	"meshes":[
		{
			"name":"Cube.001",
			"primitives":[
				{
					"attributes":{
						"POSITION":0,
						"TEXCOORD_0":1,
						"NORMAL":2
					},
					"indices":3,
					"material":0
				}
			]
		},
		{
			"name":"Cylinder",
			"primitives":[
				{
					"attributes":{
						"POSITION":4,
						"TEXCOORD_0":5,
						"NORMAL":6
					},
					"indices":7,
					"material":1
				}
			]
		},
		{
			"name":"Cylinder.001",
			"primitives":[
				{
					"attributes":{
						"POSITION":8,
						"TEXCOORD_0":9,
						"NORMAL":10
					},
					"indices":7,
					"material":2
				}
			]
		},
		{
			"name":"Cube.002",
			"primitives":[
				{
					"attributes":{
						"POSITION":11,
						"TEXCOORD_0":12,
						"NORMAL":13
					},
					"indices":3,
					"material":3
				}
			]
		},
		{
			"name":"Cube.003",
			"primitives":[
				{
					"attributes":{
						"POSITION":14,
						"TEXCOORD_0":15,
						"NORMAL":16
					},
					"indices":3,
					"material":4
				}
			]
		},
		{
			"name":"Cube.004",
			"primitives":[
				{
					"attributes":{
						"POSITION":17,
						"TEXCOORD_0":18,
						"NORMAL":19
					},
					"indices":3,
					"material":5
				}
			]
		},
		{
			"name":"Cube.005",
			"primitives":[
				{
					"attributes":{
						"POSITION":20,
						"TEXCOORD_0":21,
						"NORMAL":22
					},
					"indices":3,
					"material":6
				}
			]
		},
		{
			"name":"Cylinder.002",
			"primitives":[
				{
					"attributes":{
						"POSITION":23,
						"TEXCOORD_0":24,
						"NORMAL":25
					},
					"indices":7,
					"material":7
				}
			]
		},
		{
			"name":"Cylinder.003",
			"primitives":[
				{
					"attributes":{
						"POSITION":26,
						"TEXCOORD_0":27,
						"NORMAL":28
					},
					"indices":7,
					"material":8
				}
			]
		}
	],
	"accessors":[
		{
			"bufferView":0,
			"componentType":5126,
			"count":24,
			"max":[
				1,
				1,
				1
			],
			"min":[
				-1,
				-1,
				-1
			],
			"type":"VEC3"
		},
		{
			"bufferView":1,
			"componentType":5126,
			"count":24,
			"type":"VEC2"
		},
		{
			"bufferView":2,
			"componentType":5126,
			"count":24,
			"type":"VEC3"
		},
		{
			"bufferView":3,
			"componentType":5123,
			"count":36,
			"type":"SCALAR"
		},
		{
			"bufferView":4,
			"componentType":5126,
			"count":192,
			"max":[
				1,
				1,
				1
			],
			"min":[
				-1,
				-1,
				-1
			],
			"type":"VEC3"
		},
		{
			"bufferView":5,
			"componentType":5126,
			"count":192,
			"type":"VEC2"
		},
		{
			"bufferView":6,
			"componentType":5126,
			"count":192,
			"type":"VEC3"
		},
		{
			"bufferView":7,
			"componentType":5123,
			"count":372,
			"type":"SCALAR"
		},
		{
			"bufferView":8,
			"componentType":5126,
			"count":192,
			"max":[
				1,
				1,
				1
			],
			"min":[
				-1,
				-1,
				-1
			],
			"type":"VEC3"
		},
		{
			"bufferView":9,
			"componentType":5126,
			"count":192,
			"type":"VEC2"
		},
		{
			"bufferView":10,
			"componentType":5126,
			"count":192,
			"type":"VEC3"
		},
		{
			"bufferView":11,
			"componentType":5126,
			"count":24,
			"max":[
				1,
				1,
				1
			],
			"min":[
				-1,
				-1,
				-1
			],
			"type":"VEC3"
		},
		{
			"bufferView":12,
			"componentType":5126,
			"count":24,
			"type":"VEC2"
		},
		{
			"bufferView":13,
			"componentType":5126,
			"count":24,
			"type":"VEC3"
		},
		{
			"bufferView":14,
			"componentType":5126,
			"count":24,
			"max":[
				1,
				1,
				1
			],
			"min":[
				-1,
				-1,
				-1
			],
			"type":"VEC3"
		},
		{
			"bufferView":15,
			"componentType":5126,
			"count":24,
			"type":"VEC2"
		},
		{
			"bufferView":16,
			"componentType":5126,
			"count":24,
			"type":"VEC3"
		},
		{
			"bufferView":17,
			"componentType":5126,
			"count":24,
			"max":[
				1,
				1,
				1
			],
			"min":[
				-1,
				-1,
				-1
			],
			"type":"VEC3"
		},
		{
			"bufferView":18,
			"componentType":5126,
			"count":24,
			"type":"VEC2"
		},
		{
			"bufferView":19,
			"componentType":5126,
			"count":24,
			"type":"VEC3"
		},
		{
			"bufferView":20,
			"componentType":5126,
			"count":24,
			"max":[
				1,
				1,
				1
			],
			"min":[
				-1,
				-1,
				-1
			],
			"type":"VEC3"
		},
		{
			"bufferView":21,
			"componentType":5126,
			"count":24,
			"type":"VEC2"
		},
		{
			"bufferView":22,
			"componentType":5126,
			"count":24,
			"type":"VEC3"
		},
		{
			"bufferView":23,
			"componentType":5126,
			"count":192,
			"max":[
				1,
				1,
				1
			],
			"min":[
				-1,
				-1,
				-1
			],
			"type":"VEC3"
		},
		{
			"bufferView":24,
			"componentType":5126,
			"count":192,
			"type":"VEC2"
		},
		{
			"bufferView":25,
			"componentType":5126,
			"count":192,
			"type":"VEC3"
		},
		{
			"bufferView":26,
			"componentType":5126,
			"count":192,
			"max":[
				1,
				1,
				1
			],
			"min":[
				-1,
				-1,
				-1
			],
			"type":"VEC3"
		},
		{
			"bufferView":27,
			"componentType":5126,
			"count":192,
			"type":"VEC2"
		},
		{
			"bufferView":28,
			"componentType":5126,
			"count":192,
			"type":"VEC3"
		}
	],
	"bufferViews":[
		{
			"buffer":0,
			"byteLength":288,
			"byteOffset":0,
			"target":34962
		},
		{
			"buffer":0,
			"byteLength":192,
			"byteOffset":288,
			"target":34962
		},
		{
			"buffer":0,
			"byteLength":288,
			"byteOffset":480,
			"target":34962
		},
		{
			"buffer":0,
			"byteLength":72,
			"byteOffset":768,
			"target":34963
		},
		{
			"buffer":0,
			"byteLength":2304,
			"byteOffset":840,
			"target":34962
		},
		{
			"buffer":0,
			"byteLength":1536,
			"byteOffset":3144,
			"target":34962
		},
		{
			"buffer":0,
			"byteLength":2304,
			"byteOffset":4680,
			"target":34962
		},
		{
			"buffer":0,
			"byteLength":744,
			"byteOffset":6984,
			"target":34963
		},
		{
			"buffer":0,
			"byteLength":2304,
			"byteOffset":7728,
			"target":34962
		},
		{
			"buffer":0,
			"byteLength":1536,
			"byteOffset":10032,
			"target":34962
		},
		{
			"buffer":0,
			"byteLength":2304,
			"byteOffset":11568,
			"target":34962
		},
		{
			"buffer":0,
			"byteLength":288,
			"byteOffset":13872,
			"target":34962
		},
		{
			"buffer":0,
			"byteLength":192,
			"byteOffset":14160,
			"target":34962
		},
		{
			"buffer":0,
			"byteLength":288,
			"byteOffset":14352,
			"target":34962
		},
		{
			"buffer":0,
			"byteLength":288,
			"byteOffset":14640,
			"target":34962
		},
		{
			"buffer":0,
			"byteLength":192,
			"byteOffset":14928,
			"target":34962
		},
		{
			"buffer":0,
			"byteLength":288,
			"byteOffset":15120,
			"target":34962
		},
		{
			"buffer":0,
			"byteLength":288,
			"byteOffset":15408,
			"target":34962
		},
		{
			"buffer":0,
			"byteLength":192,
			"byteOffset":15696,
			"target":34962
		},
		{
			"buffer":0,
			"byteLength":288,
			"byteOffset":15888,
			"target":34962
		},
		{
			"buffer":0,
			"byteLength":288,
			"byteOffset":16176,
			"target":34962
		},
		{
			"buffer":0,
			"byteLength":192,
			"byteOffset":16464,
			"target":34962
		},
		{
			"buffer":0,
			"byteLength":288,
			"byteOffset":16656,
			"target":34962
		},
		{
			"buffer":0,
			"byteLength":2304,
			"byteOffset":16944,
			"target":34962
		},
		{
			"buffer":0,
			"byteLength":1536,
			"byteOffset":19248,
			"target":34962
		},
		{
			"buffer":0,
			"byteLength":2304,
			"byteOffset":20784,
			"target":34962
		},
		{
			"buffer":0,
			"byteLength":2304,
			"byteOffset":23088,
			"target":34962
		},
		{
			"buffer":0,
			"byteLength":1536,
			"byteOffset":25392,
			"target":34962
		},
		{
			"buffer":0,
			"byteLength":2304,
			"byteOffset":26928,
			"target":34962
		}
	],
	"buffers":[
		{
			"byteLength":29232,
			"uri":"data:application/octet-stream;base64,"
		}
	]
}
