{
	"asset":{
		"generator":"Khronos glTF Blender I/O v3.5.30",
		"version":"2.0"
	},
	"scene":0,
	"scenes":[
		{
			"name":"Scene",
			"nodes":[
				0,
				1,
				2,
				3,
				4,
				5,
				6,
				7,
				8,
				9,
				10,
				11
			]
		}
	],
	"nodes":[
		{
			"mesh":0,
			"name":"Zylinder",
			"scale":[
				2,
				1,
				2
			],
			"translation":[
				0,
				0.4000000059604645,
				0
			]
		},
		{
			"mesh":1,
			"name":"Zylinder.001",
			"rotation":[
				0,
				0,
				-0.17708474397659302,
				0.9841956496238708
			],
			"scale":[
				0.4000000059604645,
				1.2400000095367432,
				0.4000000059604645
			],
			"translation":[
				-0.75,
				5.750005722045898,
				-9
			]
		},
		{
			"mesh":2,
			"name":"Kugel",
			"scale":[
				0.800000011920929,
				0.800000011920929,
				0.800000011920929
			],
			"translation":[
				0,
				7,
				-9
			]
		},
		{
			"mesh":3,
			"name":"Zylinder.002",
			"scale":[
				1,
				3,
				1
			],
			"translation":[
				0,
				3,
				0
			]
		},
		{
			"mesh":4,
			"name":"W\u00fcrfel",
			"translation":[
				0,
				12,
				-9
			]
		},
		{
			"mesh":5,
			"name":"Zylinder.003",
			"rotation":[
				0.7071068286895752,
				0,
				0,
				0.7071068286895752
			],
			"scale":[
				1,
				4.929998397827148,
				1
			],
			"translation":[
				0,
				12,
				-5
			]
		},
		{
			"mesh":6,
			"name":"W\u00fcrfel.001",
			"translation":[
				0,
				12.160003662109375,
				0
			]
		},
		{
			"mesh":7,
			"name":"Zylinder.004",
			"scale":[
				3.119999885559082,
				1,
				3.119999885559082
			]
		},
		{
			"mesh":8,
			"name":"Zylinder.005",
			"scale":[
				1,
				3,
				1
			],
			"translation":[
				0,
				9.659992218017578,
				0
			]
		},
		{
			"mesh":9,
			"name":"Kugel.001",
			"translation":[
				0,
				6,
				0
			]
		},
		{
			"mesh":10,
			"name":"Zylinder.006",
			"scale":[
				0.4000000059604645,
				2,
				0.4000000059604645
			],
			"translation":[
				0,
				9.659992218017578,
				-9
			]
		},
		{
			"mesh":11,
			"name":"Zylinder.007",
			"rotation":[
				0,
				0,
				0.17708474397659302,
				0.9841956496238708
			],
			"scale":[
				0.4000000059604645,
				1.2400000095367432,
				0.4000000059604645
			],
			"translation":[
				0.7499997615814209,
				5.750005722045898,
				-9
			]
		}
	],
	"materials":[
		{
			"doubleSided":true,
			"name":"Material.002",
			"pbrMetallicRoughness":{
				"baseColorFactor":[
					0,
					0,
					0,
					1
				],
				"metallicFactor":0,
				"roughnessFactor":0.4000000059604645
			}
		},
		{
			"doubleSided":true,
			"name":"Material.004",
			"pbrMetallicRoughness":{
				"baseColorFactor":[
					0,
					0,
					0,
					1
				],
				"metallicFactor":0,
				"roughnessFactor":0.4000000059604645
			}
		},
		{
			"doubleSided":true,
			"name":"Material.008",
			"pbrMetallicRoughness":{
				"baseColorFactor":[
					0.7991029024124146,
					0.3915722072124481,
					0,
					1
				],
				"metallicFactor":0,
				"roughnessFactor":0.4000000059604645
			}
		},
		{
			"doubleSided":true,
			"name":"Material.006",
			"pbrMetallicRoughness":{
				"baseColorFactor":[
					0,
					0,
					0,
					1
				],
				"metallicFactor":0,
				"roughnessFactor":0.4000000059604645
			}
		},
		{
			"doubleSided":true,
			"name":"Material.001",
			"pbrMetallicRoughness":{
				"baseColorFactor":[
					0.7433800101280212,
					0.8000000715255737,
					0,
					1
				],
				"metallicFactor":0,
				"roughnessFactor":0.4000000059604645
			}
		},
		{
			"doubleSided":true,
			"name":"Material.005",
			"pbrMetallicRoughness":{
				"baseColorFactor":[
					0,
					0,
					0,
					1
				],
				"metallicFactor":0,
				"roughnessFactor":0.4000000059604645
			}
		},
		{
			"doubleSided":true,
			"name":"Material.007",
			"pbrMetallicRoughness":{
				"baseColorFactor":[
					0.7991029024124146,
					0.3915722072124481,
					0,
					1
				],
				"metallicFactor":0,
				"roughnessFactor":0.4000000059604645
			}
		},
		{
			"doubleSided":true,
			"name":"Material.003",
			"pbrMetallicRoughness":{
				"baseColorFactor":[
					0,
					0,
					0,
					1
				],
				"metallicFactor":0,
				"roughnessFactor":0.4000000059604645
			}
		}
	],
	"meshes":[
		{
			"name":"Zylinder",
			"primitives":[
				{
					"attributes":{
						"POSITION":0,
						"TEXCOORD_0":1,
						"NORMAL":2
					},
					"indices":3,
					"material":0
				}
			]
		},
		{
			"name":"Zylinder.001",
			"primitives":[
				{
					"attributes":{
						"POSITION":4,
						"TEXCOORD_0":5,
						"NORMAL":6
					},
					"indices":3
				}
			]
		},
		{
			"name":"Kugel",
			"primitives":[
				{
					"attributes":{
						"POSITION":7,
						"TEXCOORD_0":8,
						"NORMAL":9
					},
					"indices":10,
					"material":1
				}
			]
		},
		{
			"name":"Zylinder.002",
			"primitives":[
				{
					"attributes":{
						"POSITION":11,
						"TEXCOORD_0":12,
						"NORMAL":13
					},
					"indices":3,
					"material":2
				}
			]
		},
		{
			"name":"W\u00fcrfel",
			"primitives":[
				{
					"attributes":{
						"POSITION":14,
						"TEXCOORD_0":15,
						"NORMAL":16
					},
					"indices":17,
					"material":3
				}
			]
		},
		{
			"name":"Zylinder.003",
			"primitives":[
				{
					"attributes":{
						"POSITION":18,
						"TEXCOORD_0":19,
						"NORMAL":20
					},
					"indices":3,
					"material":4
				}
			]
		},
		{
			"name":"W\u00fcrfel.001",
			"primitives":[
				{
					"attributes":{
						"POSITION":21,
						"TEXCOORD_0":22,
						"NORMAL":23
					},
					"indices":17,
					"material":5
				}
			]
		},
		{
			"name":"Zylinder.004",
			"primitives":[
				{
					"attributes":{
						"POSITION":24,
						"TEXCOORD_0":25,
						"NORMAL":26
					},
					"indices":3,
					"material":4
				}
			]
		},
		{
			"name":"Zylinder.005",
			"primitives":[
				{
					"attributes":{
						"POSITION":27,
						"TEXCOORD_0":28,
						"NORMAL":29
					},
					"indices":3,
					"material":6
				}
			]
		},
		{
			"name":"Kugel.001",
			"primitives":[
				{
					"attributes":{
						"POSITION":30,
						"TEXCOORD_0":31,
						"NORMAL":32
					},
					"indices":10,
					"material":7
				}
			]
		},
		{
			"name":"Zylinder.006",
			"primitives":[
				{
					"attributes":{
						"POSITION":33,
						"TEXCOORD_0":34,
						"NORMAL":35
					},
					"indices":3
				}
			]
		},
		{
			"name":"Zylinder.007",
			"primitives":[
				{
					"attributes":{
						"POSITION":36,
						"TEXCOORD_0":37,
						"NORMAL":38
					},
					"indices":3
				}
			]
		}
	],
	"accessors":[
		{
			"bufferView":0,
			"componentType":5126,
			"count":192,
			"max":[
				1,
				1,
				1
			],
			"min":[
				-1,
				-1,
				-1
			],
			"type":"VEC3"
		},
		{
			"bufferView":1,
			"componentType":5126,
			"count":192,
			"type":"VEC2"
		},
		{
			"bufferView":2,
			"componentType":5126,
			"count":192,
			"type":"VEC3"
		},
		{
			"bufferView":3,
			"componentType":5123,
			"count":372,
			"type":"SCALAR"
		},
		{
			"bufferView":4,
			"componentType":5126,
			"count":192,
			"max":[
				1,
				1,
				1
			],
			"min":[
				-1,
				-1,
				-1
			],
			"type":"VEC3"
		},
		{
			"bufferView":5,
			"componentType":5126,
			"count":192,
			"type":"VEC2"
		},
		{
			"bufferView":6,
			"componentType":5126,
			"count":192,
			"type":"VEC3"
		},
		{
			"bufferView":7,
			"componentType":5126,
			"count":1984,
			"max":[
				0.9999997019767761,
				1,
				0.9999993443489075
			],
			"min":[
				-0.9999990463256836,
				-1,
				-1
			],
			"type":"VEC3"
		},
		{
			"bufferView":8,
			"componentType":5126,
			"count":1984,
			"type":"VEC2"
		},
		{
			"bufferView":9,
			"componentType":5126,
			"count":1984,
			"type":"VEC3"
		},
		{
			"bufferView":10,
			"componentType":5123,
			"count":2880,
			"type":"SCALAR"
		},
		{
			"bufferView":11,
			"componentType":5126,
			"count":192,
			"max":[
				1,
				1,
				1
			],
			"min":[
				-1,
				-1,
				-1
			],
			"type":"VEC3"
		},
		{
			"bufferView":12,
			"componentType":5126,
			"count":192,
			"type":"VEC2"
		},
		{
			"bufferView":13,
			"componentType":5126,
			"count":192,
			"type":"VEC3"
		},
		{
			"bufferView":14,
			"componentType":5126,
			"count":24,
			"max":[
				1,
				1,
				1
			],
			"min":[
				-1,
				-1,
				-1
			],
			"type":"VEC3"
		},
		{
			"bufferView":15,
			"componentType":5126,
			"count":24,
			"type":"VEC2"
		},
		{
			"bufferView":16,
			"componentType":5126,
			"count":24,
			"type":"VEC3"
		},
		{
			"bufferView":17,
			"componentType":5123,
			"count":36,
			"type":"SCALAR"
		},
		{
			"bufferView":18,
			"componentType":5126,
			"count":192,
			"max":[
				1,
				1,
				1
			],
			"min":[
				-1,
				-1,
				-1
			],
			"type":"VEC3"
		},
		{
			"bufferView":19,
			"componentType":5126,
			"count":192,
			"type":"VEC2"
		},
		{
			"bufferView":20,
			"componentType":5126,
			"count":192,
			"type":"VEC3"
		},
		{
			"bufferView":21,
			"componentType":5126,
			"count":24,
			"max":[
				1,
				1,
				1
			],
			"min":[
				-1,
				-1,
				-1
			],
			"type":"VEC3"
		},
		{
			"bufferView":22,
			"componentType":5126,
			"count":24,
			"type":"VEC2"
		},
		{
			"bufferView":23,
			"componentType":5126,
			"count":24,
			"type":"VEC3"
		},
		{
			"bufferView":24,
			"componentType":5126,
			"count":192,
			"max":[
				1,
				1,
				1
			],
			"min":[
				-1,
				-1,
				-1
			],
			"type":"VEC3"
		},
		{
			"bufferView":25,
			"componentType":5126,
			"count":192,
			"type":"VEC2"
		},
		{
			"bufferView":26,
			"componentType":5126,
			"count":192,
			"type":"VEC3"
		},
		{
			"bufferView":27,
			"componentType":5126,
			"count":192,
			"max":[
				1,
				1,
				1
			],
			"min":[
				-1,
				-1,
				-1
			],
			"type":"VEC3"
		},
		{
			"bufferView":28,
			"componentType":5126,
			"count":192,
			"type":"VEC2"
		},
		{
			"bufferView":29,
			"componentType":5126,
			"count":192,
			"type":"VEC3"
		},
		{
			"bufferView":30,
			"componentType":5126,
			"count":1984,
			"max":[
				0.9999997019767761,
				1,
				0.9999993443489075
			],
			"min":[
				-0.9999990463256836,
				-1,
				-1
			],
			"type":"VEC3"
		},
		{
			"bufferView":31,
			"componentType":5126,
			"count":1984,
			"type":"VEC2"
		},
		{
			"bufferView":32,
			"componentType":5126,
			"count":1984,
			"type":"VEC3"
		},
		{
			"bufferView":33,
			"componentType":5126,
			"count":192,
			"max":[
				1,
				1,
				1
			],
			"min":[
				-1,
				-1,
				-1
			],
			"type":"VEC3"
		},
		{
			"bufferView":34,
			"componentType":5126,
			"count":192,
			"type":"VEC2"
		},
		{
			"bufferView":35,
			"componentType":5126,
			"count":192,
			"type":"VEC3"
		},
		{
			"bufferView":36,
			"componentType":5126,
			"count":192,
			"max":[
				1,
				1,
				1
			],
			"min":[
				-1,
				-1,
				-1
			],
			"type":"VEC3"
		},
		{
			"bufferView":37,
			"componentType":5126,
			"count":192,
			"type":"VEC2"
		},
		{
			"bufferView":38,
			"componentType":5126,
			"count":192,
			"type":"VEC3"
		}
	],
	"bufferViews":[
		{
			"buffer":0,
			"byteLength":2304,
			"byteOffset":0,
			"target":34962
		},
		{
			"buffer":0,
			"byteLength":1536,
			"byteOffset":2304,
			"target":34962
		},
		{
			"buffer":0,
			"byteLength":2304,
			"byteOffset":3840,
			"target":34962
		},
		{
			"buffer":0,
			"byteLength":744,
			"byteOffset":6144,
			"target":34963
		},
		{
			"buffer":0,
			"byteLength":2304,
			"byteOffset":6888,
			"target":34962
		},
		{
			"buffer":0,
			"byteLength":1536,
			"byteOffset":9192,
			"target":34962
		},
		{
			"buffer":0,
			"byteLength":2304,
			"byteOffset":10728,
			"target":34962
		},
		{
			"buffer":0,
			"byteLength":23808,
			"byteOffset":13032,
			"target":34962
		},
		{
			"buffer":0,
			"byteLength":15872,
			"byteOffset":36840,
			"target":34962
		},
		{
			"buffer":0,
			"byteLength":23808,
			"byteOffset":52712,
			"target":34962
		},
		{
			"buffer":0,
			"byteLength":5760,
			"byteOffset":76520,
			"target":34963
		},
		{
			"buffer":0,
			"byteLength":2304,
			"byteOffset":82280,
			"target":34962
		},
		{
			"buffer":0,
			"byteLength":1536,
			"byteOffset":84584,
			"target":34962
		},
		{
			"buffer":0,
			"byteLength":2304,
			"byteOffset":86120,
			"target":34962
		},
		{
			"buffer":0,
			"byteLength":288,
			"byteOffset":88424,
			"target":34962
		},
		{
			"buffer":0,
			"byteLength":192,
			"byteOffset":88712,
			"target":34962
		},
		{
			"buffer":0,
			"byteLength":288,
			"byteOffset":88904,
			"target":34962
		},
		{
			"buffer":0,
			"byteLength":72,
			"byteOffset":89192,
			"target":34963
		},
		{
			"buffer":0,
			"byteLength":2304,
			"byteOffset":89264,
			"target":34962
		},
		{
			"buffer":0,
			"byteLength":1536,
			"byteOffset":91568,
			"target":34962
		},
		{
			"buffer":0,
			"byteLength":2304,
			"byteOffset":93104,
			"target":34962
		},
		{
			"buffer":0,
			"byteLength":288,
			"byteOffset":95408,
			"target":34962
		},
		{
			"buffer":0,
			"byteLength":192,
			"byteOffset":95696,
			"target":34962
		},
		{
			"buffer":0,
			"byteLength":288,
			"byteOffset":95888,
			"target":34962
		},
		{
			"buffer":0,
			"byteLength":2304,
			"byteOffset":96176,
			"target":34962
		},
		{
			"buffer":0,
			"byteLength":1536,
			"byteOffset":98480,
			"target":34962
		},
		{
			"buffer":0,
			"byteLength":2304,
			"byteOffset":100016,
			"target":34962
		},
		{
			"buffer":0,
			"byteLength":2304,
			"byteOffset":102320,
			"target":34962
		},
		{
			"buffer":0,
			"byteLength":1536,
			"byteOffset":104624,
			"target":34962
		},
		{
			"buffer":0,
			"byteLength":2304,
			"byteOffset":106160,
			"target":34962
		},
		{
			"buffer":0,
			"byteLength":23808,
			"byteOffset":108464,
			"target":34962
		},
		{
			"buffer":0,
			"byteLength":15872,
			"byteOffset":132272,
			"target":34962
		},
		{
			"buffer":0,
			"byteLength":23808,
			"byteOffset":148144,
			"target":34962
		},
		{
			"buffer":0,
			"byteLength":2304,
			"byteOffset":171952,
			"target":34962
		},
		{
			"buffer":0,
			"byteLength":1536,
			"byteOffset":174256,
			"target":34962
		},
		{
			"buffer":0,
			"byteLength":2304,
			"byteOffset":175792,
			"target":34962
		},
		{
			"buffer":0,
			"byteLength":2304,
			"byteOffset":178096,
			"target":34962
		},
		{
			"buffer":0,
			"byteLength":1536,
			"byteOffset":180400,
			"target":34962
		},
		{
			"buffer":0,
			"byteLength":2304,
			"byteOffset":181936,
			"target":34962
		}
	],
	"buffers":[
		{
			"byteLength":184240,
			"uri":"data:application/octet-stream;base64,"
		}
	]
}
